<?xml version="1.0" encoding="iso-8859-1"?>
<!-- Generator: Adobe Illustrator 19.0.0, SVG Export Plug-In . SVG Version: 6.00 Build 0)  -->
<svg version="1.1" id="Capa_1" xmlns="http://www.w3.org/2000/svg" xmlns:xlink="http://www.w3.org/1999/xlink" x="0px" y="0px"
	 viewBox="0 0 512 512" style="enable-background:new 0 0 512 512;" xml:space="preserve">
<path style="fill:#455A64;" d="M255.992,464c-8.832,0-16-7.168-16-16V208c0-8.832,7.168-16,16-16s16,7.168,16,16v240
	C271.992,456.832,264.824,464,255.992,464z"/>
<circle style="fill:#F44336;" cx="255.992" cy="112" r="112"/>
<path style="fill:#EF9A9A;" d="M303.992,112c-8.832,0-16-7.168-16-16s-7.168-16-16-16s-16-7.168-16-16s7.168-16,16-16
	c26.464,0,48,21.536,48,48C319.992,104.832,312.824,112,303.992,112z"/>
<g>
	<path style="fill:#455A64;" d="M127.992,512c-6.464,0-12.576-3.968-14.976-10.368c-3.104-8.288,1.088-17.504,9.344-20.608l256-96
		c8.224-3.168,17.504,1.088,20.608,9.344c3.136,8.288-1.056,17.504-9.344,20.608l-256,96C131.768,511.68,129.88,512,127.992,512z"/>
	<path style="fill:#455A64;" d="M383.992,512c-1.888,0-3.776-0.32-5.632-1.024l-256-96c-8.256-3.104-12.448-12.32-9.344-20.608
		c3.104-8.256,12.32-12.544,20.608-9.344l256,96c8.288,3.104,12.48,12.32,9.344,20.608C396.568,508.032,390.456,512,383.992,512z"/>
</g>
<g>
</g>
<g>
</g>
<g>
</g>
<g>
</g>
<g>
</g>
<g>
</g>
<g>
</g>
<g>
</g>
<g>
</g>
<g>
</g>
<g>
</g>
<g>
</g>
<g>
</g>
<g>
</g>
<g>
</g>
</svg>
